<?xml version="1.0" encoding="utf-8"?>
<!-- Generator: Adobe Illustrator 21.1.0, SVG Export Plug-In . SVG Version: 6.00 Build 0)  -->
<svg version="1.1" id="Layer_1" xmlns="http://www.w3.org/2000/svg" xmlns:xlink="http://www.w3.org/1999/xlink" x="0px" y="0px"
	 viewBox="0 0 126.4 19.2" enable-background="new 0 0 126.4 19.2" xml:space="preserve">
<g>
	<path fill="#810000" d="M22.7,12.6h-1.1l-2.3-5.5h1.2l1.7,4.3l1.7-4.3H25L22.7,12.6z"/>
	<path fill="#810000" d="M26.6,12.6V7.1h1v5.5H26.6z"/>
	<path fill="#810000" d="M32.9,8.4c-0.2-0.3-0.7-0.6-1.3-0.6c-0.8,0-1.1,0.3-1.1,0.7c0,0.5,0.6,0.6,1.2,0.7c1.2,0.1,2.2,0.4,2.2,1.8
		c0,1.2-1.1,1.8-2.3,1.8c-1.1,0-2-0.3-2.4-1.4l0.9-0.4c0.2,0.6,0.9,0.9,1.6,0.9c0.7,0,1.3-0.2,1.3-0.8c0-0.5-0.5-0.7-1.3-0.8
		c-1.1-0.1-2.2-0.4-2.2-1.7c0-1.1,1.1-1.6,2.1-1.6c0.9,0,1.8,0.2,2.2,1.1L32.9,8.4z"/>
	<path fill="#810000" d="M35.5,12.6V7.1h1v5.5H35.5z"/>
	<path fill="#810000" d="M43.9,9.8c0,1.4-0.9,2.9-2.8,2.9c-1.9,0-2.8-1.4-2.8-2.8c0-1.5,0.9-2.9,2.8-2.9C42.9,6.9,43.9,8.4,43.9,9.8
		z M39.2,9.8c0,0.9,0.5,1.9,1.8,1.9s1.8-1,1.8-1.9s-0.5-2-1.8-2C39.7,7.9,39.2,8.9,39.2,9.8z"/>
	<path fill="#810000" d="M48.9,7h1v5.5h-0.6l0,0l-2.9-3.7v3.7h-1V7h0.8l2.7,3.4V7z"/>
	<path fill="#810000" d="M55.8,11.5h-2.9l-0.5,1h-1.1L53.8,7h1.1l2.5,5.5h-1.1L55.8,11.5z M54.3,8.2l-1,2.4h2.1L54.3,8.2z"/>
	<path fill="#810000" d="M63.5,12.6h-1.2l-1.6-1.8h-1v1.8h-1V7.1c0.9,0,1.8,0,2.6,0c1.3,0,2,0.9,2,1.8c0,0.8-0.3,1.5-1.4,1.7
		L63.5,12.6L63.5,12.6z M59.6,8v1.8h1.6c0.7,0,0.9-0.4,0.9-0.9c0-0.4-0.3-0.9-0.9-0.9C61.2,8,59.6,8,59.6,8z"/>
	<path fill="#810000" d="M67,9.3L68.5,7h1.3l0,0l-2.2,3.2v2.3h-1v-2.3L64.5,7l0,0h1.2L67,9.3z"/>
	<path fill="#810000" d="M74.7,8.1c-0.4-0.6-1-0.7-1.7-0.7c-0.6,0-1.7,0.2-1.7,1.1c0,0.7,0.8,0.9,1.7,1c1.1,0.2,2.2,0.4,2.2,1.6
		c0,1.2-1.3,1.5-2.2,1.5c-0.9,0-1.8-0.4-2.3-1.2l0.4-0.2c0.3,0.7,1.2,1,1.9,1c0.7,0,1.8-0.2,1.8-1.2c0-0.8-0.9-1-1.8-1.2
		c-1-0.2-2-0.4-2-1.4c0-1.2,1.2-1.5,2.1-1.5c0.8,0,1.5,0.1,2,0.9L74.7,8.1z"/>
	<path fill="#810000" d="M81.5,11.8c-0.6,0.6-1.3,0.8-2,0.8c-1.9,0-2.8-1.3-2.8-2.8c0-1.5,0.9-2.9,2.8-2.9c0.7,0,1.5,0.3,2,0.8
		L81.2,8c-0.5-0.5-1.1-0.7-1.7-0.7c-1.6,0-2.4,1.1-2.4,2.5c0,1.3,0.8,2.4,2.4,2.4c0.6,0,1.3-0.2,1.7-0.7L81.5,11.8z"/>
	<path fill="#810000" d="M87.3,12.6v-2.5h-3.5v2.5h-0.4V7.1h0.4v2.6h3.5V7.1h0.4v5.5H87.3z"/>
	<path fill="#810000" d="M94.9,9.8c0,1.5-0.9,2.8-2.8,2.8s-2.8-1.4-2.8-2.9s0.9-2.8,2.8-2.8S95,8.3,94.9,9.8z M89.8,9.8
		c0,1.2,0.8,2.5,2.4,2.5s2.4-1.2,2.4-2.5c0-1.3-0.8-2.5-2.4-2.5C90.6,7.3,89.8,8.5,89.8,9.8z"/>
	<path fill="#810000" d="M102.1,9.8c0,1.5-0.9,2.8-2.8,2.8s-2.8-1.4-2.8-2.9s0.9-2.8,2.8-2.8C101.2,6.9,102.1,8.3,102.1,9.8z
		 M96.9,9.8c0,1.2,0.8,2.5,2.4,2.5s2.4-1.2,2.4-2.5c0-1.3-0.8-2.5-2.4-2.5C97.7,7.3,96.9,8.5,96.9,9.8z"/>
	<path fill="#810000" d="M104.3,7v5.1h3.1v0.4h-3.5V7H104.3z"/>
	<path fill="#810000" d="M113.9,7.6l-2.1,3.2h-0.1l-2.1-3.2v4.9h-0.4V7c0.2,0,0.3,0,0.5,0l2.1,3.2l2.1-3.2h0.5v5.5H114L113.9,7.6
		L113.9,7.6z"/>
	<path fill="#810000" d="M116.8,9.6h3.2V10h-3.2v2.2h3.5v0.4h-3.9V7.1h3.8v0.4h-3.4V9.6z"/>
	<path fill="#810000" d="M122.3,7l3.7,4.6V7h0.4v5.5h-0.2l-3.7-4.6v4.6h-0.4V7H122.3z"/>
	<g>
		<path fill="#810000" d="M12,14.7c0,0-3.4,2-6.9,2l2.7-1.4l-5-2.7c0,0-0.7-4.6,2.5-8.6l0,0c0,0-1.5,1-2.6,0.9
			c-1.1,0-1.2-1.7-0.6-2.2c0.1-0.1,0.5-0.5,2-0.3c0,0,2.6-1.6,5.8-0.9C10.6,1.7,6.4,0,5.2,0C5,0,5.6,1.2,4,1.8
			C3.8,1.9,2.4,1.3,1.4,2.6c0,0-0.9,1.6,0.4,2.7C1.9,5.4,0.3,8.8,0,11.5c0,0-0.8,5.8,4.8,7.3C8.2,19.8,12,14.7,12,14.7z"/>
		<path fill="#810000" d="M6.1,3.6l1.6-0.8c0,0,1.3,0,2.3,2.4C10.1,5.4,8.3,3.1,6.1,3.6z"/>
		<path fill="#810000" d="M10,6.9c0,0-0.2,2.2-0.3,2.4c-0.2,0.3-2.5,1.3-2.5,1.3v0.3c0,0,2-1.1,2.6-1c0.7,0.1,1.3,0.8,1.3,0.8v-0.3
			c0,0-1-0.7-1.1-1.1C9.9,9,10.1,6.8,10,6.9L10,6.9L10,6.9z"/>
		<polygon fill="#810000" stroke="#810000" stroke-width="0.4105" stroke-miterlimit="10" points="4.5,6.8 5.4,7.8 4.6,10.7 
			7.4,12.4 11.1,12.9 12,12 11.7,11.4 12.7,10 12,11.4 12.3,12.1 11.1,13.2 7.3,12.7 4.3,10.9 5,7.9 		"/>
		<path fill="#810000" d="M13.4,3.2c-0.5-0.4-1.3-0.7-2.8-0.5c0,0-0.8,0.1-1,0.3c-0.1,0,1.7,1.1,3,2.6c0,0-1.1-1.7-0.2-2.4
			C12.7,3,13.4,3.2,13.4,3.2z"/>
		<path fill="#810000" d="M13.8,6.6c3.1,3.5,0.7,9.6,0.7,9.6l-6.4,3c0,0,2.9-2.3,4.8-4.8C16,10.6,13.5,6.2,13.8,6.6z"/>
		<path fill="#810000" d="M4.3,18.7c0.8,0.3,2,0.5,2,0.5l1.5-0.7"/>
		<path fill="#810000" d="M14.3,7.2c0,0,0.8-0.6,0.2-1.7c0,0,0.1,0.6-0.7,1.1L14.3,7.2z"/>
		<path fill="#810000" d="M5.9,5.7c0,0,0.8-0.5,1.3-0.3c0.6,0.2,0.8,1,0.8,1s0.3,0.4-0.2,0.2c-0.2-0.1-0.2,0-0.9-0.2
			C6.4,6.2,6,5.9,5.9,5.7z"/>
		<path fill="#810000" d="M10.6,6.3c0,0,0.2-0.7,0.7-0.6c0.3,0.1,0.4,0.4,0.4,0.4s0,0.6-0.6,0.5C10.6,6.6,10.6,6.3,10.6,6.3z"/>
		<path fill="#810000" d="M9.8,9.4l0.2-1c0,0-0.4-0.1-0.4-0.3c0-0.3,0.3-0.8,0-0.9c0,0-0.2-0.1-1.1,0.2c-0.1,0-0.1,0-0.1,0L8.3,7.2
			c0,0,0,0,0-0.1C8.5,7,9.2,6.5,9.9,6.6c0,0,0.7,0,1.2,0.6c0.1,0.2,0.2,0.4,0.2,0.4s0,0.1,0,0c-0.1-0.1-0.3-0.2-0.4-0.2
			c-0.2,0-0.3,0.1-0.3,0.1s-0.2,0.1-0.2,0.7c0,0-0.1,0.4-0.4,0.4l-0.1,1"/>
		<polyline fill="#810000" points="9.6,7.9 9.5,8.1 9.6,8.2 		"/>
	</g>
</g>
</svg>
